<svg width="38" height="36" viewBox="0 0 38 36" fill="none" xmlns="http://www.w3.org/2000/svg">
<path d="M18.9954 7.57927C18.6272 7.57927 18.2672 7.69037 17.9611 7.89853C17.6549 8.10669 17.4162 8.40255 17.2753 8.7487C17.1344 9.09486 17.0975 9.47575 17.1694 9.84323C17.2412 10.2107 17.4185 10.5482 17.6789 10.8132C17.9393 11.0781 18.2711 11.2585 18.6322 11.3316C18.9934 11.4047 19.3677 11.3672 19.7079 11.2238C20.0482 11.0805 20.3389 10.8376 20.5435 10.5261C20.7481 10.2146 20.8573 9.84833 20.8573 9.47365C20.8573 8.97123 20.6611 8.48939 20.312 8.13412C19.9628 7.77885 19.4892 7.57927 18.9954 7.57927ZM8.39038 24.8826C8.07147 25.0699 7.81432 25.3493 7.65145 25.6853C7.48858 26.0213 7.42731 26.399 7.47537 26.7704C7.52344 27.1419 7.67869 27.4905 7.92149 27.7722C8.16429 28.0539 8.48374 28.256 8.83943 28.353C9.19513 28.45 9.5711 28.4375 9.91979 28.317C10.2685 28.1966 10.5743 27.9736 10.7984 27.6764C11.0226 27.3791 11.1551 27.0209 11.1792 26.647C11.2032 26.2731 11.1178 25.9004 10.9337 25.5759C10.6868 25.1408 10.2801 24.8234 9.80315 24.6933C9.32619 24.5633 8.81801 24.6314 8.39038 24.8826ZM29.6005 24.8826C29.2816 24.6952 28.9153 24.6083 28.5478 24.6328C28.1804 24.6573 27.8283 24.7921 27.5362 25.0202C27.244 25.2483 27.0249 25.5594 26.9065 25.9142C26.7881 26.269 26.7758 26.6515 26.8711 27.0134C26.9664 27.3753 27.1651 27.7004 27.4419 27.9474C27.7188 28.1944 28.0614 28.3524 28.4265 28.4013C28.7916 28.4502 29.1628 28.3879 29.493 28.2222C29.8233 28.0564 30.0978 27.7948 30.282 27.4703C30.5288 27.0352 30.5957 26.5181 30.4679 26.0329C30.3402 25.5476 30.0281 25.1338 29.6005 24.8826ZM35.0259 19.5954C33.9172 18.5346 32.5661 17.7718 31.0948 17.3759C29.6235 16.98 28.0784 16.9634 26.5992 17.3278L25.8191 15.8824C26.9252 14.6717 27.6998 13.187 28.0657 11.5765C28.4316 9.96599 28.3759 8.28602 27.9043 6.70424C27.4327 5.12246 26.5617 3.69419 25.378 2.56197C24.1944 1.42976 22.7396 0.633196 21.1589 0.251786C19.7824 -0.0765559 18.3508 -0.0838598 16.9711 0.230421C15.5915 0.544701 14.2996 1.17243 13.1921 2.06661C12.0961 2.95185 11.2113 4.07812 10.6041 5.36094C9.99691 6.64376 9.68311 8.04983 9.68623 9.47365C9.68584 11.8645 10.5868 14.1644 12.2034 15.8994L11.4233 17.3202C9.83714 16.9391 8.18034 16.9894 6.61929 17.466C5.05824 17.9425 3.64791 18.8286 2.52992 20.0352C1.41194 21.2419 0.625659 22.7266 0.250047 24.3402C-0.125565 25.9538 -0.077286 27.6396 0.390035 29.2283C0.798533 30.6056 1.50824 31.8709 2.46592 32.9293C3.4236 33.9877 4.60438 34.8117 5.91971 35.3396C7.11095 35.8192 8.38708 36.0419 9.6673 35.9935C10.9475 35.9452 12.2039 35.6269 13.357 35.0589C14.51 34.4908 15.5346 33.6853 16.3657 32.6934C17.1969 31.7015 17.8166 30.5448 18.1855 29.2965L19.7998 29.323C20.3804 31.2543 21.5546 32.945 23.1499 34.1467C24.7452 35.3484 26.6773 35.9976 28.6621 35.9988C30.6687 35.9969 32.6213 35.3376 34.2309 34.1185C35.8405 32.8995 37.0215 31.1854 37.599 29.2302C38.1055 27.5407 38.1327 25.7399 37.6775 24.0354C37.2223 22.3308 36.3032 20.7917 35.0259 19.5954ZM34.0429 28.1106C33.8049 28.938 33.3854 29.6996 32.816 30.3379C32.2465 30.9763 31.5421 31.4748 30.7558 31.7959C29.9695 32.1169 29.1218 32.2521 28.2766 32.1913C27.4315 32.1305 26.6109 31.8752 25.8768 31.4447C24.6658 30.7316 23.766 29.5771 23.3596 28.2148C23.1332 27.4335 22.6646 26.7476 22.0237 26.2594C21.3829 25.7712 20.6041 25.5069 19.8035 25.5058H18.1855C17.385 25.5072 16.6064 25.7716 15.9656 26.2598C15.3248 26.7479 14.8561 27.4337 14.6294 28.2148C14.4054 28.9604 14.032 29.6508 13.5327 30.2423C13.0334 30.8338 12.4191 31.3137 11.7286 31.6516C11.038 31.9896 10.2861 32.1784 9.52023 32.206C8.7544 32.2337 7.99124 32.0996 7.27886 31.8122C5.96378 31.2929 4.89121 30.2855 4.27752 28.9931C3.66382 27.7008 3.55467 26.2197 3.9721 24.8487C4.38952 23.4777 5.30244 22.3188 6.5267 21.6057C7.75096 20.8927 9.19544 20.6786 10.5687 21.0067C11.3421 21.1967 12.1552 21.1254 12.8852 20.8034C13.6151 20.4814 14.2222 19.9264 14.6145 19.2222L15.4263 17.7938C15.8259 17.0882 15.9909 16.2702 15.8966 15.4616C15.8023 14.6529 15.4539 13.8968 14.9031 13.306C14.38 12.7358 13.9787 12.0614 13.7246 11.3255C13.4704 10.5896 13.3689 9.80802 13.4265 9.03019C13.484 8.25235 13.6994 7.49509 14.059 6.80618C14.4185 6.11726 14.9145 5.51165 15.5157 5.02753C16.6128 4.12938 18.0035 3.68719 19.4081 3.78986C20.8126 3.89252 22.1269 4.53244 23.0866 5.58094C24.0464 6.62943 24.5804 8.00875 24.5813 9.44155C24.5822 10.8743 24.0499 12.2544 23.0915 13.3041C22.5411 13.8954 22.1926 14.6515 22.0977 15.4602C22.0028 16.2689 22.1665 17.0872 22.5646 17.7938L23.3745 19.2203C23.7683 19.9237 24.3757 20.4781 25.1056 20.8002C25.8355 21.1223 26.6484 21.1948 27.4222 21.0067C28.3701 20.778 29.3604 20.8066 30.2941 21.0897C31.2277 21.3727 32.0719 21.9003 32.7423 22.6196C33.4126 23.3388 33.8856 24.2246 34.1138 25.1882C34.3421 26.1519 34.3176 27.1596 34.0429 28.1106Z" fill="current"/>
</svg>
