<svg width="27" height="28" viewBox="0 0 27 28" fill="none" xmlns="http://www.w3.org/2000/svg">
<path d="M18.5131 14.9931C19.8432 13.9138 20.814 12.4338 21.2905 10.759C21.7671 9.0842 21.7256 7.29786 21.1719 5.64849C20.6182 3.99913 19.5798 2.56876 18.2012 1.55639C16.8225 0.544027 15.1723 0 13.4799 0C11.7875 0 10.1372 0.544027 8.75858 1.55639C7.37996 2.56876 6.34157 3.99913 5.78787 5.64849C5.23417 7.29786 5.1927 9.0842 5.66923 10.759C6.14575 12.4338 7.11658 13.9138 8.44665 14.9931C6.16755 15.9348 4.17896 17.4967 2.69288 19.5123C1.20679 21.528 0.278924 23.9217 0.00818319 26.4384C-0.0114144 26.6222 0.0042713 26.8081 0.0543443 26.9856C0.104417 27.1631 0.187897 27.3287 0.300018 27.4729C0.526455 27.7642 0.855806 27.9507 1.21562 27.9916C1.57543 28.0324 1.93622 27.9241 2.21863 27.6906C2.50104 27.457 2.68194 27.1174 2.72152 26.7463C3.01942 24.0111 4.28397 21.485 6.27356 19.6507C8.26316 17.8163 10.8383 16.8022 13.507 16.8022C16.1757 16.8022 18.7509 17.8163 20.7405 19.6507C22.7301 21.485 23.9946 24.0111 24.2925 26.7463C24.3294 27.0901 24.4885 27.4076 24.739 27.6376C24.9895 27.8675 25.3138 27.9937 25.6492 27.9916H25.7984C26.154 27.9494 26.4791 27.7639 26.7027 27.4756C26.9263 27.1873 27.0304 26.8195 26.9923 26.4524C26.7202 23.9286 25.7874 21.5287 24.2937 19.5099C22.7999 17.4912 20.8017 15.9298 18.5131 14.9931ZM13.4799 13.9996C12.4066 13.9996 11.3574 13.6714 10.465 13.0564C9.57257 12.4414 8.87702 11.5673 8.46629 10.5446C8.05556 9.52197 7.9481 8.39664 8.15748 7.31097C8.36687 6.22531 8.88371 5.22806 9.64265 4.44533C10.4016 3.66261 11.3685 3.12957 12.4212 2.91362C13.4739 2.69766 14.565 2.8085 15.5566 3.23211C16.5482 3.65571 17.3957 4.37306 17.992 5.29345C18.5883 6.21383 18.9065 7.29591 18.9065 8.40285C18.9065 9.88721 18.3348 11.3108 17.3171 12.3604C16.2994 13.41 14.9191 13.9996 13.4799 13.9996Z" fill="current"/>
</svg>
