<svg width="30" height="36" viewBox="0 0 30 36" fill="none" xmlns="http://www.w3.org/2000/svg">
<path d="M26.25 0H7.5C5.51088 0 3.60322 0.758569 2.1967 2.10883C0.790176 3.45909 0 5.29044 0 7.2V28.8C0 30.7096 0.790176 32.5409 2.1967 33.8912C3.60322 35.2414 5.51088 36 7.5 36H26.25C27.2446 36 28.1984 35.6207 28.9016 34.9456C29.6049 34.2705 30 33.3548 30 32.4V3.6C30 2.64522 29.6049 1.72955 28.9016 1.05442C28.1984 0.379284 27.2446 0 26.25 0ZM3.75 7.2C3.75 6.24522 4.14509 5.32955 4.84835 4.65442C5.55161 3.97928 6.50544 3.6 7.5 3.6H26.25V21.6H7.5C6.1782 21.6053 4.88249 21.9536 3.75 22.608V7.2ZM7.5 32.4C6.50544 32.4 5.55161 32.0207 4.84835 31.3456C4.14509 30.6705 3.75 29.7548 3.75 28.8C3.75 27.8452 4.14509 26.9295 4.84835 26.2544C5.55161 25.5793 6.50544 25.2 7.5 25.2H26.25V32.4H7.5ZM11.25 10.8H18.75C19.2473 10.8 19.7242 10.6104 20.0758 10.2728C20.4275 9.93523 20.625 9.47739 20.625 9C20.625 8.52261 20.4275 8.06477 20.0758 7.72721C19.7242 7.38964 19.2473 7.2 18.75 7.2H11.25C10.7527 7.2 10.2758 7.38964 9.92418 7.72721C9.57254 8.06477 9.375 8.52261 9.375 9C9.375 9.47739 9.57254 9.93523 9.92418 10.2728C10.2758 10.6104 10.7527 10.8 11.25 10.8Z" fill="current"/>
</svg>
