<svg width="22" height="28" viewBox="0 0 22 28" fill="none" xmlns="http://www.w3.org/2000/svg">
<path d="M20.625 7H16.5V5.6C16.5 4.11479 15.9205 2.69041 14.8891 1.6402C13.8576 0.589998 12.4587 0 11 0C9.54131 0 8.14236 0.589998 7.11091 1.6402C6.07946 2.69041 5.5 4.11479 5.5 5.6V7H1.375C1.01033 7 0.660591 7.1475 0.402728 7.41005C0.144866 7.6726 0 8.0287 0 8.4V23.8C0 24.9139 0.434597 25.9822 1.20818 26.7698C1.98177 27.5575 3.03098 28 4.125 28H17.875C18.969 28 20.0182 27.5575 20.7918 26.7698C21.5654 25.9822 22 24.9139 22 23.8V8.4C22 8.0287 21.8551 7.6726 21.5973 7.41005C21.3394 7.1475 20.9897 7 20.625 7ZM8.25 5.6C8.25 4.85739 8.53973 4.1452 9.05546 3.6201C9.57118 3.095 10.2707 2.8 11 2.8C11.7293 2.8 12.4288 3.095 12.9445 3.6201C13.4603 4.1452 13.75 4.85739 13.75 5.6V7H8.25V5.6ZM19.25 23.8C19.25 24.1713 19.1051 24.5274 18.8473 24.79C18.5894 25.0525 18.2397 25.2 17.875 25.2H4.125C3.76033 25.2 3.41059 25.0525 3.15273 24.79C2.89487 24.5274 2.75 24.1713 2.75 23.8V9.8H5.5V11.2C5.5 11.5713 5.64487 11.9274 5.90273 12.1899C6.16059 12.4525 6.51033 12.6 6.875 12.6C7.23967 12.6 7.58941 12.4525 7.84727 12.1899C8.10513 11.9274 8.25 11.5713 8.25 11.2V9.8H13.75V11.2C13.75 11.5713 13.8949 11.9274 14.1527 12.1899C14.4106 12.4525 14.7603 12.6 15.125 12.6C15.4897 12.6 15.8394 12.4525 16.0973 12.1899C16.3551 11.9274 16.5 11.5713 16.5 11.2V9.8H19.25V23.8Z" fill="current"/>
</svg>
