<svg width="10" height="12" viewBox="0 0 10 12" fill="none" xmlns="http://www.w3.org/2000/svg">
<path d="M10 4.164C9.99421 4.10888 9.98304 4.05458 9.96667 4.002V3.948C9.93996 3.88631 9.90432 3.8296 9.86111 3.78L6.52778 0.18C6.48185 0.13333 6.42935 0.0948486 6.37222 0.0659999C6.35564 0.0634561 6.33881 0.0634561 6.32222 0.0659999C6.26579 0.0310448 6.20346 0.00860652 6.13889 0H3.88889C3.44686 0 3.02294 0.189642 2.71038 0.527208C2.39782 0.864773 2.22222 1.32261 2.22222 1.8V2.4H1.66667C1.22464 2.4 0.800716 2.58964 0.488155 2.92721C0.175595 3.26477 0 3.72261 0 4.2V10.2C0 10.6774 0.175595 11.1352 0.488155 11.4728C0.800716 11.8104 1.22464 12 1.66667 12H6.11111C6.55314 12 6.97706 11.8104 7.28962 11.4728C7.60218 11.1352 7.77778 10.6774 7.77778 10.2V9.6H8.33333C8.77536 9.6 9.19928 9.41036 9.51185 9.07279C9.82441 8.73523 10 8.27739 10 7.8V4.164ZM6.66667 2.046L8.10556 3.6H7.22222C7.07488 3.6 6.93357 3.53679 6.82939 3.42426C6.7252 3.31174 6.66667 3.15913 6.66667 3V2.046ZM6.66667 10.2C6.66667 10.3591 6.60814 10.5117 6.50395 10.6243C6.39976 10.7368 6.25845 10.8 6.11111 10.8H1.66667C1.51932 10.8 1.37802 10.7368 1.27383 10.6243C1.16964 10.5117 1.11111 10.3591 1.11111 10.2V4.2C1.11111 4.04087 1.16964 3.88826 1.27383 3.77574C1.37802 3.66321 1.51932 3.6 1.66667 3.6H2.22222V7.8C2.22222 8.27739 2.39782 8.73523 2.71038 9.07279C3.02294 9.41036 3.44686 9.6 3.88889 9.6H6.66667V10.2ZM8.88889 7.8C8.88889 7.95913 8.83036 8.11174 8.72617 8.22426C8.62198 8.33679 8.48068 8.4 8.33333 8.4H3.88889C3.74155 8.4 3.60024 8.33679 3.49605 8.22426C3.39187 8.11174 3.33333 7.95913 3.33333 7.8V1.8C3.33333 1.64087 3.39187 1.48826 3.49605 1.37574C3.60024 1.26321 3.74155 1.2 3.88889 1.2H5.55556V3C5.55556 3.47739 5.73115 3.93523 6.04371 4.27279C6.35627 4.61036 6.7802 4.8 7.22222 4.8H8.88889V7.8Z" fill="current"/>
</svg>
