<svg width="17" height="22" viewBox="0 0 17 22" fill="none" xmlns="http://www.w3.org/2000/svg">
<path d="M5.3125 8.8H6.375C6.65679 8.8 6.92704 8.68411 7.1263 8.47782C7.32556 8.27153 7.4375 7.99174 7.4375 7.7C7.4375 7.40826 7.32556 7.12847 7.1263 6.92218C6.92704 6.71589 6.65679 6.6 6.375 6.6H5.3125C5.03071 6.6 4.76046 6.71589 4.5612 6.92218C4.36194 7.12847 4.25 7.40826 4.25 7.7C4.25 7.99174 4.36194 8.27153 4.5612 8.47782C4.76046 8.68411 5.03071 8.8 5.3125 8.8ZM5.3125 11C5.03071 11 4.76046 11.1159 4.5612 11.3222C4.36194 11.5285 4.25 11.8083 4.25 12.1C4.25 12.3917 4.36194 12.6715 4.5612 12.8778C4.76046 13.0841 5.03071 13.2 5.3125 13.2H11.6875C11.9693 13.2 12.2395 13.0841 12.4388 12.8778C12.6381 12.6715 12.75 12.3917 12.75 12.1C12.75 11.8083 12.6381 11.5285 12.4388 11.3222C12.2395 11.1159 11.9693 11 11.6875 11H5.3125ZM17 7.634C16.9889 7.53295 16.9676 7.43339 16.9363 7.337V7.238C16.8852 7.1249 16.817 7.02093 16.7344 6.93L10.3594 0.33C10.2715 0.244438 10.1711 0.173889 10.0619 0.121C10.0302 0.116336 9.99797 0.116336 9.96625 0.121C9.85832 0.0569154 9.73911 0.0157786 9.61563 0H3.1875C2.34212 0 1.53137 0.347678 0.933597 0.966548C0.335825 1.58542 0 2.42479 0 3.3V18.7C0 19.5752 0.335825 20.4146 0.933597 21.0335C1.53137 21.6523 2.34212 22 3.1875 22H13.8125C14.6579 22 15.4686 21.6523 16.0664 21.0335C16.6642 20.4146 17 19.5752 17 18.7V7.634ZM10.625 3.751L13.3769 6.6H11.6875C11.4057 6.6 11.1355 6.48411 10.9362 6.27782C10.7369 6.07153 10.625 5.79174 10.625 5.5V3.751ZM14.875 18.7C14.875 18.9917 14.7631 19.2715 14.5638 19.4778C14.3645 19.6841 14.0943 19.8 13.8125 19.8H3.1875C2.90571 19.8 2.63546 19.6841 2.4362 19.4778C2.23694 19.2715 2.125 18.9917 2.125 18.7V3.3C2.125 3.00826 2.23694 2.72847 2.4362 2.52218C2.63546 2.31589 2.90571 2.2 3.1875 2.2H8.5V5.5C8.5 6.37521 8.83582 7.21458 9.4336 7.83345C10.0314 8.45232 10.8421 8.8 11.6875 8.8H14.875V18.7ZM11.6875 15.4H5.3125C5.03071 15.4 4.76046 15.5159 4.5612 15.7222C4.36194 15.9285 4.25 16.2083 4.25 16.5C4.25 16.7917 4.36194 17.0715 4.5612 17.2778C4.76046 17.4841 5.03071 17.6 5.3125 17.6H11.6875C11.9693 17.6 12.2395 17.4841 12.4388 17.2778C12.6381 17.0715 12.75 16.7917 12.75 16.5C12.75 16.2083 12.6381 15.9285 12.4388 15.7222C12.2395 15.5159 11.9693 15.4 11.6875 15.4Z" fill="current"/>
</svg>
