<svg width="27" height="28" viewBox="0 0 27 28" fill="none" xmlns="http://www.w3.org/2000/svg">
<path d="M22.95 0H4.05C2.97587 0 1.94574 0.442499 1.18622 1.23015C0.426695 2.0178 0 3.08609 0 4.2V23.8C0 24.9139 0.426695 25.9822 1.18622 26.7698C1.94574 27.5575 2.97587 28 4.05 28H22.95C24.0241 28 25.0543 27.5575 25.8138 26.7698C26.5733 25.9822 27 24.9139 27 23.8V4.2C27 3.08609 26.5733 2.0178 25.8138 1.23015C25.0543 0.442499 24.0241 0 22.95 0ZM10.8 2.8H16.2V7.182L14.2425 5.782C14.0221 5.63146 13.7639 5.55123 13.5 5.55123C13.2361 5.55123 12.9779 5.63146 12.7575 5.782L10.8 7.182V2.8ZM24.3 23.8C24.3 24.1713 24.1578 24.5274 23.9046 24.79C23.6514 25.0525 23.308 25.2 22.95 25.2H4.05C3.69196 25.2 3.34858 25.0525 3.09541 24.79C2.84223 24.5274 2.7 24.1713 2.7 23.8V4.2C2.7 3.8287 2.84223 3.4726 3.09541 3.21005C3.34858 2.9475 3.69196 2.8 4.05 2.8H8.1V9.8C8.10065 10.0533 8.16754 10.3016 8.29354 10.5186C8.41954 10.7355 8.59993 10.913 8.8155 11.032C9.0266 11.1444 9.26255 11.1971 9.49956 11.1848C9.73657 11.1725 9.96626 11.0957 10.1655 10.962L13.5 8.68L16.8075 10.962C17.0105 11.1007 17.2459 11.1799 17.4888 11.1913C17.7316 11.2028 17.973 11.146 18.1873 11.027C18.4016 10.908 18.581 10.7311 18.7064 10.5152C18.8319 10.2992 18.8987 10.0521 18.9 9.8V2.8H22.95C23.308 2.8 23.6514 2.9475 23.9046 3.21005C24.1578 3.4726 24.3 3.8287 24.3 4.2V23.8Z" fill="current"/>
</svg>
