<svg width="14" height="20" viewBox="0 0 14 20" fill="none" xmlns="http://www.w3.org/2000/svg">
<path d="M11 0H3C2.20436 0 1.4413 0.316008 0.878687 0.878505C0.316078 1.441 7.88291e-06 2.20391 7.88291e-06 2.9994V18.9962C-0.000691684 19.1724 0.0451825 19.3456 0.132986 19.4984C0.220789 19.6511 0.347403 19.778 0.500007 19.8661C0.652026 19.9538 0.82447 20 1.00001 20C1.17554 20 1.34799 19.9538 1.50001 19.8661L7 16.6867L12.5 19.8661C12.6524 19.9524 12.8248 19.9972 13 19.996C13.1752 19.9972 13.3476 19.9524 13.5 19.8661C13.6526 19.778 13.7792 19.6511 13.867 19.4984C13.9548 19.3456 14.0007 19.1724 14 18.9962V2.9994C14 2.20391 13.6839 1.441 13.1213 0.878505C12.5587 0.316008 11.7956 0 11 0ZM12 17.2666L7.5 14.6671C7.34798 14.5793 7.17554 14.5331 7 14.5331C6.82446 14.5331 6.65202 14.5793 6.5 14.6671L2.00001 17.2666V2.9994C2.00001 2.73424 2.10536 2.47994 2.2929 2.29244C2.48043 2.10494 2.73479 1.9996 3 1.9996H11C11.2652 1.9996 11.5196 2.10494 11.7071 2.29244C11.8946 2.47994 12 2.73424 12 2.9994V17.2666Z" fill="current"/>
</svg>
