<svg width="23" height="24" viewBox="0 0 23 24" fill="none" xmlns="http://www.w3.org/2000/svg">
<path d="M10.1371 20.64C10.137 20.4918 10.1022 20.3455 10.0351 20.2114C9.96804 20.0772 9.87038 19.9586 9.74901 19.8637C9.62764 19.7689 9.48554 19.7003 9.33276 19.6626C9.17998 19.625 9.02025 19.6193 8.86487 19.646C7.4525 19.8887 5.67033 19.9251 5.19702 18.6773C4.78384 17.7106 4.09947 16.8668 3.21647 16.2353C3.15326 16.203 3.09303 16.1658 3.03642 16.1241C2.9591 15.9331 2.82191 15.7685 2.64293 15.6521C2.46395 15.5357 2.25156 15.4728 2.03375 15.4719H2.02836C1.74335 15.4718 1.46993 15.5777 1.26789 15.7662C1.06585 15.9548 0.951636 16.2107 0.950211 16.478C0.945899 17.3021 1.82351 17.8309 2.18037 18.0089C2.60083 18.4051 2.93869 18.8715 3.17658 19.3841C3.5701 20.4185 4.71078 21.9889 7.99157 21.7867L7.99481 21.8858L7.99912 22.1567C7.99912 22.4249 8.11271 22.6821 8.3149 22.8718C8.51709 23.0614 8.79132 23.1679 9.07726 23.1679C9.36321 23.1679 9.63744 23.0614 9.83963 22.8718C10.0418 22.6821 10.1554 22.4249 10.1554 22.1567L10.15 21.8352C10.1446 21.6431 10.1371 21.366 10.1371 20.64ZM21.6376 5.34491C21.676 5.20461 21.7084 5.06293 21.7347 4.92021C21.9091 3.79336 21.7572 2.64326 21.2948 1.59041C21.2365 1.45324 21.147 1.32968 21.0324 1.22837C20.9179 1.12707 20.7812 1.05046 20.6317 1.00392C20.2479 0.882582 18.8312 0.642933 16.1208 2.2679C13.868 1.77072 11.523 1.77072 9.27025 2.2679C6.57058 0.666191 5.16144 0.884605 4.78086 0.998868C4.62767 1.04346 4.48706 1.11964 4.36935 1.22182C4.25163 1.324 4.15979 1.4496 4.10055 1.5894C3.62827 2.66254 3.47766 3.83633 3.66498 4.98392C3.69193 5.11234 3.71996 5.23267 3.75015 5.34188C2.85659 6.45784 2.3806 7.81915 2.396 9.21469C2.39331 9.52568 2.40879 9.83658 2.44236 10.146C2.80246 14.8004 6.0369 16.1969 8.29022 16.6772C8.2413 16.8101 8.19885 16.9451 8.163 17.0816C8.09452 17.342 8.13913 17.6173 8.28704 17.8469C8.43494 18.0764 8.67401 18.2414 8.95166 18.3057C9.22931 18.3699 9.52279 18.3281 9.76754 18.1893C10.0123 18.0506 10.1883 17.8264 10.2568 17.566C10.3254 17.229 10.5013 16.9195 10.7613 16.6782C10.9182 16.549 11.0317 16.3799 11.0881 16.1915C11.1445 16.003 11.1413 15.8032 11.079 15.6163C11.0166 15.4295 10.8978 15.2637 10.7369 15.1389C10.5761 15.0142 10.38 14.9359 10.1727 14.9137C6.44875 14.5143 4.83153 13.0915 4.58787 9.95992C4.56119 9.71199 4.54931 9.46285 4.55229 9.21367C4.53517 8.21923 4.88565 7.2499 5.54418 6.47035C5.61007 6.38925 5.68023 6.31129 5.75442 6.23677C5.88653 6.09817 5.97534 5.92811 6.0111 5.74526C6.04686 5.56241 6.02818 5.37385 5.95711 5.20031C5.88452 5.01803 5.82861 4.83029 5.79 4.63911C5.70221 4.09453 5.73117 3.53899 5.87518 3.00504C6.81225 3.25337 7.69415 3.65751 8.47889 4.19823C8.60858 4.27923 8.7553 4.33315 8.90912 4.35635C9.06295 4.37955 9.2203 4.3715 9.37052 4.33272C11.5496 3.77805 13.847 3.7784 16.0259 4.33373C16.177 4.3725 16.3352 4.38011 16.4897 4.35602C16.6441 4.33193 16.7912 4.27672 16.9208 4.19419C17.7021 3.6514 18.5806 3.2439 19.5148 2.99089C19.6577 3.51179 19.6896 4.05404 19.6086 4.58653C19.5695 4.79624 19.5085 5.00183 19.4264 5.20031C19.3553 5.37385 19.3366 5.56241 19.3724 5.74526C19.4081 5.92811 19.497 6.09817 19.6291 6.23677C19.7132 6.32474 19.7962 6.41878 19.8706 6.50776C20.5243 7.27421 20.8687 8.23245 20.8431 9.21367C20.8449 9.47608 20.8312 9.73837 20.8021 9.99936C20.5649 13.0895 18.9423 14.5133 15.2011 14.9137C14.9935 14.9358 14.7972 15.014 14.6361 15.1388C14.475 15.2636 14.356 15.4296 14.2937 15.6166C14.2313 15.8037 14.2282 16.0037 14.2848 16.1923C14.3414 16.3809 14.4553 16.5501 14.6125 16.6792C14.8804 16.9269 15.0565 17.2487 15.1149 17.5973C15.1881 17.8682 15.2218 18.1471 15.2151 18.4265V20.7856C15.2044 21.4408 15.2044 21.9313 15.2044 22.1567C15.2044 22.4249 15.3179 22.6821 15.5201 22.8718C15.7223 23.0614 15.9966 23.1679 16.2825 23.1679C16.5684 23.1679 16.8427 23.0614 17.0449 22.8718C17.2471 22.6821 17.3606 22.4249 17.3606 22.1567C17.3606 21.9373 17.3606 21.457 17.3714 20.8018V18.4255C17.38 17.9786 17.3238 17.5326 17.2043 17.0998C17.1702 16.9577 17.1285 16.8173 17.0793 16.6792C18.7193 16.4235 20.2094 15.6303 21.2844 14.4408C22.3594 13.2513 22.9495 11.7427 22.9498 10.1834C22.9853 9.86126 23.0019 9.53752 22.9993 9.21367C23.0232 7.81702 22.5434 6.45376 21.6376 5.34491Z" fill="current"/>
</svg>
