<svg width="38" height="38" viewBox="0 0 38 38" fill="none" xmlns="http://www.w3.org/2000/svg">
<path d="M36.8765 12.5973V12.502C35.5351 8.83617 33.1011 5.67116 29.9039 3.43514C26.7066 1.19911 22.9004 0 19 0C15.0996 0 11.2934 1.19911 8.09613 3.43514C4.89888 5.67116 2.46493 8.83617 1.12353 12.502C1.12353 12.502 1.12353 12.502 1.12353 12.5973C-0.374509 16.7341 -0.374509 21.2659 1.12353 25.4027V25.498C2.46493 29.1638 4.89888 32.3288 8.09613 34.5649C11.2934 36.8009 15.0996 38 19 38C22.9004 38 26.7066 36.8009 29.9039 34.5649C33.1011 32.3288 35.5351 29.1638 36.8765 25.498C36.8765 25.498 36.8765 25.498 36.8765 25.4027C38.3745 21.2659 38.3745 16.7341 36.8765 12.5973ZM4.22669 22.8111C3.56651 20.3133 3.56651 17.6867 4.22669 15.1889H7.76771C7.46317 17.7205 7.46317 20.2795 7.76771 22.8111H4.22669ZM5.78778 26.6222H8.45307C8.89992 28.3217 9.53863 29.9647 10.3568 31.5195C8.48981 30.2465 6.92909 28.5736 5.78778 26.6222ZM8.45307 11.3778H5.78778C6.91267 9.43235 8.45344 7.76 10.2997 6.48048C9.5012 8.03778 8.88169 9.68071 8.45307 11.3778ZM17.0581 33.6728C14.7199 31.9553 13.0776 29.4524 12.432 26.6222H17.0581V33.6728ZM17.0581 22.8111H11.6133C11.2581 20.2828 11.2581 17.7172 11.6133 15.1889H17.0581V22.8111ZM17.0581 11.3778H12.432C13.0776 8.54757 14.7199 6.04471 17.0581 4.3272V11.3778ZM32.1361 11.3778H29.4708C29.0239 9.67831 28.3852 8.0353 27.567 6.48048C29.434 7.75352 30.9948 9.42636 32.1361 11.3778ZM20.8657 4.3272C23.204 6.04471 24.8462 8.54757 25.4919 11.3778H20.8657V4.3272ZM20.8657 33.6728V26.6222H25.4919C24.8462 29.4524 23.204 31.9553 20.8657 33.6728ZM26.3105 22.8111H20.8657V15.1889H26.3105C26.6658 17.7172 26.6658 20.2828 26.3105 22.8111ZM27.6241 31.5195C28.4423 29.9647 29.081 28.3217 29.5279 26.6222H32.1932C31.0519 28.5736 29.4912 30.2465 27.6241 31.5195ZM33.6972 22.8111H30.1561C30.311 21.5467 30.3873 20.2739 30.3846 19C30.3867 17.7261 30.3104 16.4534 30.1561 15.1889H33.6972C34.3573 17.6867 34.3573 20.3133 33.6972 22.8111Z" fill="#A8B4AC"/>
</svg>
