<svg width="41" height="41" viewBox="0 0 41 41" fill="none" xmlns="http://www.w3.org/2000/svg">
<path d="M20.5 39.7188C31.1142 39.7188 39.7188 31.1142 39.7188 20.5C39.7188 9.88578 31.1142 1.28125 20.5 1.28125C9.88578 1.28125 1.28125 9.88578 1.28125 20.5C1.28125 31.1142 9.88578 39.7188 20.5 39.7188Z" fill="#00AFCA"/>
<path d="M36.3234 21.2048C35.875 20.9485 35.3625 21.2688 35.3625 21.7173C35.1703 24.8563 29.6609 25.6891 27.0344 25.6891C24.4078 25.7532 18.7703 24.7923 18.5781 21.7173C18.5781 21.2688 18.0656 21.0126 17.6172 21.2048C16.2719 21.9094 15.8234 23.2548 16.1438 24.6001C16.7203 27.0345 19.7313 28.7641 22.2938 29.5329C22.1016 29.9813 22.0375 30.4298 21.9734 30.8782C21.9094 31.3907 22.6781 31.5829 23.0625 31.2626C24.5359 30.1735 26.8422 29.7251 28.7641 29.7251C29.5969 29.7251 29.5969 28.5719 28.7641 28.5719C27.0344 28.5719 25.1766 28.8923 23.6391 29.597C24.2156 28.2516 25.5609 26.9063 27.0344 26.8423H27.0984C30.1734 26.9063 35.1063 25.8173 36.3875 22.9344C36.5797 23.4469 36.5797 24.0235 36.3875 24.536C35.7469 26.586 33.5047 27.4188 31.3906 27.9954C30.6219 28.1876 30.9422 29.3407 31.7109 29.0845C34.4016 28.3798 36.5156 27.2907 37.6047 24.8563C38.1172 23.5751 37.6047 22.0376 36.3234 21.2048ZM22.8062 28.4438C20.6922 27.8673 19.0906 26.8423 17.8094 25.1766C17.2969 24.4719 17.1047 23.511 17.5531 22.8063C18.5141 25.0485 21.6531 26.2016 24.4719 26.586C23.8313 27.0985 23.2547 27.7391 22.8062 28.4438Z" fill="#FFE62E"/>
<path d="M26.9062 22.2298C29.6306 22.2298 31.8391 20.0213 31.8391 17.2969C31.8391 14.5726 29.6306 12.3641 26.9062 12.3641C24.1819 12.3641 21.9734 14.5726 21.9734 17.2969C21.9734 20.0213 24.1819 22.2298 26.9062 22.2298Z" fill="#FFE62E"/>
<path d="M26.9063 11.7235C27.2266 11.7235 27.2906 11.5313 27.2906 11.3391C27.2906 11.0188 26.9063 9.67346 26.9063 9.67346C26.9063 9.67346 26.5219 11.0828 26.5219 11.3391C26.5219 11.5313 26.5859 11.7235 26.9063 11.7235Z" fill="#FFE62E"/>
<path d="M29.0203 12.1078C29.2766 12.2359 29.4687 12.1078 29.5328 11.9156C29.6609 11.6593 29.7891 10.1859 29.7891 10.1859C29.7891 10.1859 28.8922 11.339 28.7641 11.5953C28.7641 11.7875 28.7641 12.0437 29.0203 12.1078ZM32.0953 19.4109C31.9672 19.6671 32.0953 19.8593 32.2875 19.9234C32.5437 20.0515 34.0172 20.1796 34.0172 20.1796C34.0172 20.1796 32.8641 19.2828 32.6078 19.1546C32.4156 19.1546 32.1594 19.1546 32.0953 19.4109ZM24.7922 22.4859C24.5359 22.3578 24.3438 22.4859 24.2797 22.6781C24.1516 22.9343 24.0234 24.4078 24.0234 24.4078C24.0234 24.4078 24.9203 23.2546 25.0484 22.9984C25.0484 22.8062 25.0484 22.55 24.7922 22.4859ZM21.7172 15.1828C21.8453 14.9265 21.7172 14.7343 21.525 14.6703C21.2687 14.5421 19.7953 14.414 19.7953 14.414C19.7953 14.414 20.9484 15.3109 21.2047 15.439C21.3969 15.439 21.6531 15.439 21.7172 15.1828ZM30.8781 13.325C31.0703 13.5171 31.3266 13.4531 31.4547 13.325C31.6469 13.1328 32.3516 11.8515 32.3516 11.8515C32.3516 11.8515 31.0703 12.5562 30.8781 12.7484C30.6859 12.9406 30.6859 13.1328 30.8781 13.325ZM30.8781 21.2687C30.6859 21.4609 30.75 21.6531 30.8781 21.8453C31.0703 22.0375 32.3516 22.7421 32.3516 22.7421C32.3516 22.7421 31.6469 21.4609 31.4547 21.2687C31.2625 21.0765 31.0703 21.0765 30.8781 21.2687ZM22.9344 21.2687C22.7422 21.0765 22.4859 21.1406 22.3578 21.2687C22.1656 21.4609 21.4609 22.7421 21.4609 22.7421C21.4609 22.7421 22.7422 22.0375 22.9344 21.8453C23.1266 21.6531 23.1266 21.4609 22.9344 21.2687ZM22.9344 13.325C23.1266 13.1328 23.0625 12.8765 22.9344 12.7484C22.7422 12.5562 21.4609 11.8515 21.4609 11.8515C21.4609 11.8515 22.1656 13.1328 22.3578 13.325C22.55 13.5171 22.7422 13.5171 22.9344 13.325ZM32.0953 15.1828C32.2234 15.439 32.4156 15.5031 32.6078 15.375C32.8641 15.2468 34.0172 14.3499 34.0172 14.3499C34.0172 14.3499 32.5437 14.5421 32.2875 14.6062C32.0953 14.7343 31.9672 14.8625 32.0953 15.1828ZM29.0203 22.4859C28.7641 22.614 28.7 22.8062 28.8281 22.9984C28.9562 23.2546 29.8531 24.4078 29.8531 24.4078C29.8531 24.4078 29.6609 22.9343 29.5969 22.6781C29.4688 22.4859 29.3406 22.3578 29.0203 22.4859ZM21.7172 19.4109C21.5891 19.1546 21.3969 19.0906 21.2047 19.2187C20.9484 19.3468 19.7953 20.2437 19.7953 20.2437C19.7953 20.2437 21.2687 20.0515 21.525 19.9875C21.7172 19.8593 21.8453 19.7312 21.7172 19.4109ZM24.7922 12.1078C25.0484 11.9796 25.1125 11.7875 24.9844 11.5953C24.8562 11.339 23.9594 10.1859 23.9594 10.1859C23.9594 10.1859 24.1516 11.5953 24.2156 11.9156C24.3437 12.1078 24.4719 12.2359 24.7922 12.1078ZM27.9953 11.7875C28.2516 11.8515 28.4438 11.6593 28.4438 11.4671C28.5078 11.2109 28.3797 9.73745 28.3797 9.73745C28.3797 9.73745 27.7391 11.0187 27.675 11.339C27.6109 11.5312 27.7391 11.7234 27.9953 11.7875ZM32.4156 18.3859C32.3516 18.6421 32.5437 18.8343 32.7359 18.8343C32.9922 18.8984 34.4656 18.7703 34.4656 18.7703C34.4656 18.7703 33.1844 18.1296 32.8641 18.0656C32.6719 18.0015 32.4797 18.1296 32.4156 18.3859ZM25.8172 22.8062C25.5609 22.7421 25.3687 22.9343 25.3687 23.1265C25.3047 23.3828 25.4328 24.8562 25.4328 24.8562C25.4328 24.8562 26.0734 23.575 26.1375 23.2546C26.2016 23.0625 26.0734 22.8703 25.8172 22.8062ZM21.3969 16.2078C21.4609 15.8875 21.2687 15.7593 21.0766 15.7593C20.8203 15.6953 19.3469 15.8234 19.3469 15.8234C19.3469 15.8234 20.6281 16.464 20.9484 16.5281C21.1406 16.5921 21.3328 16.464 21.3969 16.2078ZM30.0453 12.6203C30.3016 12.7484 30.4937 12.6843 30.6219 12.4921C30.8141 12.2359 31.1984 10.8906 31.1984 10.8906C31.1984 10.8906 30.1094 11.8515 29.9172 12.0437C29.7891 12.2359 29.7891 12.4921 30.0453 12.6203ZM31.5828 20.4359C31.4547 20.6921 31.5187 20.8843 31.7109 21.0125C31.9672 21.2046 33.3125 21.589 33.3125 21.589C33.3125 21.589 32.3516 20.5 32.1594 20.3078C31.9672 20.1796 31.7109 20.1796 31.5828 20.4359ZM23.7672 21.9734C23.5109 21.8453 23.3187 21.9093 23.1906 22.1015C23.0625 22.2937 22.6141 23.7031 22.6141 23.7031C22.6141 23.7031 23.7031 22.7421 23.8953 22.55C24.0234 22.3578 24.0234 22.1015 23.7672 21.9734ZM22.2297 14.1578C22.3578 13.9015 22.2937 13.7093 22.1016 13.5812C21.9094 13.4531 20.5 13.0046 20.5 13.0046C20.5 13.0046 21.4609 14.0937 21.6531 14.2859C21.8453 14.414 22.1016 14.414 22.2297 14.1578ZM31.5828 14.1578C31.775 14.414 31.9672 14.414 32.1594 14.2859C32.4156 14.0937 33.3125 13.0046 33.3125 13.0046C33.3125 13.0046 31.9031 13.4531 31.7109 13.5812C31.5187 13.7734 31.3906 13.9656 31.5828 14.1578ZM30.0453 21.9734C29.7891 22.1656 29.7891 22.3578 29.9172 22.55C30.1094 22.8062 31.1984 23.7031 31.1984 23.7031C31.1984 23.7031 30.75 22.2937 30.6219 22.1015C30.4297 21.9093 30.2375 21.7812 30.0453 21.9734ZM22.2297 20.4359C22.0375 20.1796 21.8453 20.1796 21.6531 20.3078C21.3969 20.5 20.5 21.589 20.5 21.589C20.5 21.589 21.9094 21.1406 22.1016 21.0125C22.2937 20.8203 22.4219 20.6281 22.2297 20.4359ZM23.7672 12.6203C24.0234 12.4281 24.0234 12.2359 23.8953 12.0437C23.7031 11.7875 22.6141 10.8906 22.6141 10.8906C22.6141 10.8906 23.0625 12.3 23.1906 12.4921C23.3828 12.6843 23.575 12.8125 23.7672 12.6203ZM32.4156 16.2078C32.4797 16.464 32.6719 16.5921 32.8641 16.5281C33.1203 16.464 34.4656 15.8234 34.4656 15.8234C34.4656 15.8234 32.9922 15.6953 32.7359 15.7593C32.4797 15.7593 32.3516 15.8875 32.4156 16.2078ZM27.9953 22.8062C27.7391 22.8703 27.6109 23.0625 27.675 23.2546C27.7391 23.5109 28.3797 24.8562 28.3797 24.8562C28.3797 24.8562 28.5078 23.3828 28.4438 23.1265C28.4438 22.8703 28.3156 22.7421 27.9953 22.8062ZM21.3969 18.3859C21.3328 18.1296 21.1406 18.0015 20.9484 18.0656C20.6922 18.1296 19.3469 18.7703 19.3469 18.7703C19.3469 18.7703 20.8203 18.8984 21.0766 18.8343C21.3328 18.8343 21.4609 18.7062 21.3969 18.3859ZM25.8172 11.7875C26.0734 11.7234 26.2016 11.5312 26.1375 11.339C26.0734 11.0828 25.4328 9.73745 25.4328 9.73745C25.4328 9.73745 25.3047 11.2109 25.3687 11.4671C25.3687 11.7234 25.4969 11.8515 25.8172 11.7875ZM10.5703 33.0562H9.86562V35.4265H8.45625C9.16094 36.0031 9.86562 36.4515 10.6344 36.964V33.0562H10.5703ZM9.86562 5.57339V7.9437H10.5703V4.03589C9.80156 4.48433 9.09688 4.99683 8.39219 5.57339H9.86562ZM8.26406 5.63745C8.07187 5.76558 7.87969 5.95776 7.6875 6.14995L9.60938 10.314H8.00781V7.9437H7.30312V10.314H5.70156L7.55938 6.27808C7.04688 6.72651 6.53437 7.23901 6.08594 7.81558L4.6125 10.9546L7.11094 16.3359H5.50938V13.9656H4.80469V20.2437H5.50938V17.6171H7.175L6.21406 20.5L7.175 23.3187H5.50938V20.6921H4.80469V26.9703H5.50938V24.6H7.11094L4.6125 29.9812L6.08594 33.1203C6.53437 33.6328 7.04688 34.1453 7.55938 34.6578L5.70156 30.6218H7.30312V32.9921H8.00781V30.6218H9.60938L7.6875 34.7859C7.87969 34.9781 8.07187 35.1062 8.26406 35.2984L10.6984 29.9812L8.2 24.6H9.80156V26.9703H10.5062V20.6921H9.80156V23.3187H8.13594L9.09687 20.5L8.13594 17.6812H9.80156V20.3078H10.5062V14.0296H9.80156V16.4H8.2L10.6984 11.0187L8.26406 5.63745ZM9.67344 29.4046H8.07188V27.0343H7.36719V29.4046H5.70156L7.6875 25.1765L9.67344 29.4046ZM7.6875 22.55L7.175 21.0765H8.2L7.6875 22.55ZM8.2 19.9234H7.175L7.6875 18.45L8.2 19.9234ZM7.6875 15.8875L5.70156 11.6593H7.30312V14.0296H8.00781V11.6593H9.60938L7.6875 15.8875Z" fill="#FFE62E"/>
</svg>
