<svg width="21" height="22" viewBox="0 0 21 22" fill="none" xmlns="http://www.w3.org/2000/svg">
<path d="M15.6065 7.64971C14.7287 7.64956 13.8645 7.8767 13.0911 8.31085C13.0205 8.11644 12.895 7.94908 12.7312 7.831C12.5675 7.71291 12.3732 7.64968 12.1743 7.64971H8.2517C7.99161 7.64971 7.74219 7.75771 7.55828 7.94993C7.37437 8.14216 7.27106 8.40288 7.27106 8.67473V20.975C7.27106 21.2468 7.37437 21.5075 7.55828 21.6998C7.74219 21.892 7.99161 22 8.2517 22H12.1743C12.4343 22 12.6838 21.892 12.8677 21.6998C13.0516 21.5075 13.1549 21.2468 13.1549 20.975V15.3374C13.1549 15.0655 13.2582 14.8048 13.4421 14.6126C13.626 14.4203 13.8754 14.3123 14.1355 14.3123C14.3956 14.3123 14.645 14.4203 14.8289 14.6126C15.0129 14.8048 15.1162 15.0655 15.1162 15.3374V20.975C15.1162 21.2468 15.2195 21.5075 15.4034 21.6998C15.5873 21.892 15.8367 22 16.0968 22H20.0194C20.2794 22 20.5289 21.892 20.7128 21.6998C20.8967 21.5075 21 21.2468 21 20.975V13.2873C20.9982 11.7927 20.4294 10.3599 19.4183 9.30303C18.4072 8.24618 17.0364 7.65161 15.6065 7.64971ZM19.0387 19.95H17.0774V15.3374C17.0774 14.5218 16.7675 13.7397 16.2158 13.163C15.6641 12.5863 14.9158 12.2623 14.1355 12.2623C13.3553 12.2623 12.607 12.5863 12.0553 13.163C11.5036 13.7397 11.1936 14.5218 11.1936 15.3374V19.95H9.23233V9.69975H11.1936V10.4203C11.1935 10.6328 11.2566 10.84 11.3741 11.0134C11.4916 11.1868 11.6577 11.3177 11.8495 11.388C12.0413 11.4584 12.2493 11.4647 12.4447 11.4061C12.6401 11.3475 12.8132 11.2269 12.9401 11.061C13.3804 10.4768 13.9841 10.0509 14.6671 9.84279C15.3501 9.63463 16.0782 9.6546 16.7498 9.89989C17.4215 10.1452 18.003 10.6036 18.4134 11.211C18.8237 11.8185 19.0423 12.5447 19.0387 13.2884V19.95ZM5.30978 7.64971H1.38723C1.12714 7.64971 0.877714 7.75771 0.693809 7.94993C0.509903 8.14216 0.406586 8.40288 0.406586 8.67473V20.975C0.406586 21.2468 0.509903 21.5075 0.693809 21.6998C0.877714 21.892 1.12714 22 1.38723 22H5.30978C5.56986 22 5.81929 21.892 6.0032 21.6998C6.1871 21.5075 6.29042 21.2468 6.29042 20.975V8.67473C6.29042 8.40288 6.1871 8.14216 6.0032 7.94993C5.81929 7.75771 5.56986 7.64971 5.30978 7.64971ZM4.32914 19.95H2.36786V9.69975H4.32914V19.95ZM3.36321 0.006134C2.93378 -0.0212142 2.50352 0.0430811 2.09862 0.195105C1.69373 0.347129 1.32267 0.583701 1.00804 0.890416C0.693411 1.19713 0.441798 1.56757 0.268519 1.97918C0.0952397 2.39079 0.00392126 2.83496 0.000123534 3.28464C-0.0036742 3.73432 0.0801282 4.1801 0.246428 4.59485C0.412728 5.00959 0.658046 5.38462 0.967445 5.69709C1.27684 6.00956 1.64385 6.25294 2.04612 6.41241C2.44838 6.57189 2.87749 6.64411 3.30732 6.62469H3.33477C3.76445 6.65035 4.19462 6.5843 4.59908 6.43056C5.00354 6.27683 5.37382 6.03863 5.68737 5.73047C6.00091 5.42232 6.25114 5.05067 6.42282 4.63816C6.59451 4.22565 6.68404 3.78093 6.68598 3.33108C6.68791 2.88123 6.6022 2.43568 6.43407 2.02158C6.26594 1.60748 6.01891 1.23349 5.70802 0.922404C5.39714 0.61132 5.02892 0.369652 4.6258 0.212125C4.22268 0.0545981 3.79309 -0.0154889 3.36321 0.006134ZM3.33477 4.57465H3.30732C3.13771 4.59629 2.96563 4.57978 2.80263 4.5262C2.63963 4.47263 2.48948 4.38324 2.36224 4.26403C2.23501 4.14482 2.13363 3.99855 2.06492 3.83503C1.99621 3.6715 1.96174 3.49451 1.96384 3.31593C1.96384 2.55024 2.513 2.05618 3.36321 2.05618C3.53444 2.03262 3.70851 2.04765 3.87373 2.10025C4.03894 2.15286 4.19146 2.24182 4.32105 2.36115C4.45064 2.48049 4.55429 2.62743 4.62504 2.79212C4.69578 2.9568 4.73198 3.1354 4.7312 3.31593C4.7312 4.08059 4.18303 4.57465 3.33477 4.57465Z" fill="current"/>
</svg>
