<svg width="8" height="10" viewBox="0 0 8 10" fill="none" xmlns="http://www.w3.org/2000/svg">
<path d="M5.17171 4.43128C5.32931 4.20216 5.42385 3.93149 5.44487 3.64918C5.4659 3.36686 5.41259 3.08391 5.29084 2.8316C5.16909 2.57928 4.98365 2.36743 4.75501 2.21948C4.52637 2.07152 4.26344 1.99321 3.99529 1.99321C3.72714 1.99321 3.46422 2.07152 3.23558 2.21948C3.00694 2.36743 2.82149 2.57928 2.69975 2.8316C2.578 3.08391 2.52469 3.36686 2.54572 3.64918C2.56674 3.93149 2.66128 4.20216 2.81887 4.43128C2.61897 4.56582 2.44099 4.73364 2.29184 4.92823C2.25291 4.98142 2.22428 5.04218 2.20758 5.10705C2.19089 5.17192 2.18646 5.23963 2.19454 5.30632C2.20262 5.373 2.22307 5.43734 2.2547 5.49568C2.28633 5.55402 2.32853 5.60521 2.37889 5.64632C2.42926 5.68744 2.4868 5.71767 2.54822 5.7353C2.60965 5.75293 2.67377 5.75761 2.73691 5.74908C2.80005 5.74054 2.86098 5.71895 2.91622 5.68555C2.97146 5.65214 3.01993 5.60757 3.05886 5.55439C3.17379 5.40012 3.32025 5.27529 3.4873 5.18923C3.65435 5.10318 3.83766 5.05812 4.02353 5.05744C4.20939 5.05812 4.39271 5.10318 4.55976 5.18923C4.72681 5.27529 4.87327 5.40012 4.98819 5.55439C5.03248 5.61204 5.08844 5.65849 5.15196 5.69031C5.21547 5.72212 5.28493 5.73851 5.35524 5.73826C5.44345 5.73783 5.52978 5.71122 5.60436 5.66147C5.67895 5.61172 5.73879 5.54084 5.77706 5.4569C5.81533 5.37296 5.83048 5.27935 5.8208 5.18675C5.81111 5.09415 5.77697 5.00629 5.72228 4.9332C5.56643 4.73476 5.38036 4.56513 5.17171 4.43128ZM4 4.0685C3.89937 4.06843 3.80098 4.0371 3.71709 3.97842C3.6332 3.91973 3.5675 3.83628 3.52819 3.73845C3.48888 3.64063 3.47768 3.53275 3.49599 3.42825C3.51431 3.32376 3.56132 3.22726 3.63118 3.15077C3.70104 3.07428 3.79067 3.02119 3.88889 2.9981C3.98712 2.975 4.08961 2.98294 4.18359 3.0209C4.27758 3.05887 4.35892 3.12519 4.41748 3.21162C4.47603 3.29804 4.50923 3.40075 4.51292 3.50695C4.51545 3.57974 4.50405 3.65232 4.47941 3.72035C4.45477 3.78838 4.41739 3.85047 4.36951 3.90289C4.32163 3.95531 4.26422 3.997 4.20073 4.02546C4.13724 4.05391 4.06897 4.06855 4 4.0685ZM7.981 3.82003C7.91494 3.09394 7.67195 2.3983 7.27571 1.80083C6.87947 1.20337 6.34347 0.724444 5.71992 0.410701C5.09637 0.0969574 4.40651 -0.0409139 3.71753 0.0105119C3.02854 0.0619378 2.3639 0.300908 1.78833 0.704153C1.29386 1.05333 0.878749 1.51383 0.572828 2.05257C0.266908 2.59131 0.0777679 3.19492 0.0189965 3.82003C-0.0386564 4.44105 0.0353129 5.06783 0.235538 5.65491C0.435763 6.24198 0.757222 6.77463 1.17659 7.2142L3.6706 9.853C3.71435 9.89958 3.76639 9.93655 3.82374 9.96178C3.88108 9.98701 3.94259 10 4.00471 10C4.06683 10 4.12833 9.98701 4.18568 9.96178C4.24302 9.93655 4.29506 9.89958 4.33881 9.853L6.82341 7.2142C7.24278 6.77463 7.56424 6.24198 7.76446 5.65491C7.96469 5.06783 8.03866 4.44105 7.981 3.82003ZM6.16461 6.5135L4 8.79947L1.83539 6.5135C1.51639 6.17659 1.27203 5.76923 1.11987 5.3207C0.967724 4.87217 0.911562 4.39361 0.955427 3.91942C0.999574 3.43793 1.14448 2.97281 1.37968 2.5577C1.61487 2.14259 1.93447 1.78786 2.31537 1.51915C2.81461 1.16892 3.40064 0.982095 4 0.982095C4.59936 0.982095 5.18539 1.16892 5.68463 1.51915C6.06438 1.78682 6.38327 2.13998 6.61841 2.55327C6.85354 2.96657 6.99908 3.42973 7.04457 3.90948C7.08987 4.38527 7.03441 4.86575 6.88222 5.31612C6.73003 5.76649 6.48491 6.17549 6.16461 6.5135Z" fill="current"/>
</svg>
