<svg width="82" height="52" viewBox="0 0 82 52" fill="none" xmlns="http://www.w3.org/2000/svg">
<path d="M82 0H0V52H82V0Z" fill="#37CD73"/>
<path d="M76.3546 5.19208L68.7778 5.66272L71.81 46.8079L79.3868 46.3372L76.3546 5.19208Z" fill="white" stroke="white" stroke-width="1.5"/>
<path d="M66.9299 5.38037H59.3358V46.6196H66.9299V5.38037Z" fill="white" stroke="white" stroke-width="1.5"/>
<path d="M56.2158 5.20635L48.6357 5.63098L51.3714 46.7936L58.9515 46.369L56.2158 5.20635Z" fill="white" stroke="white" stroke-width="1.5"/>
<path d="M20.7501 5.22689L13.1663 5.58984L15.5047 46.7731L23.0885 46.4102L20.7501 5.22689Z" fill="white" stroke="white" stroke-width="1.5"/>
<path d="M36.8167 5.86109L29.2728 5.06018L24.1129 46.0264L31.6567 46.8273L36.8167 5.86109Z" fill="white" stroke="white" stroke-width="1.5"/>
<path d="M11.2165 5.38037H3.62244V46.6196H11.2165V5.38037Z" fill="white" stroke="white" stroke-width="1.5"/>
<path d="M45.9898 5.5608L38.4036 5.24292L36.3556 46.4393L43.9418 46.7571L45.9898 5.5608Z" fill="white" stroke="white" stroke-width="1.5"/>
<path d="M11.3319 10.7328H3.20032V13.3199H11.3319V10.7328Z" fill="#37CD73" stroke="#37CD73" stroke-width="1.5"/>
<path d="M11.3319 15.907H3.20032V18.494H11.3319V15.907Z" fill="#37CD73" stroke="#37CD73" stroke-width="1.5"/>
<path d="M77.1172 10.4721L69.0076 11.0198L69.2143 13.5999L77.324 13.0522L77.1172 10.4721Z" fill="#37CD73" stroke="#37CD73" stroke-width="1.5"/>
<path d="M77.4235 15.59L69.3138 16.1377L69.5206 18.7178L77.6302 18.1701L77.4235 15.59Z" fill="#37CD73" stroke="#37CD73" stroke-width="1.5"/>
<path d="M56.9239 10.5195L48.8071 10.9701L48.9772 13.5524L57.0939 13.1019L56.9239 10.5195Z" fill="#37CD73" stroke="#37CD73" stroke-width="1.5"/>
<path d="M57.4154 15.6967L49.2982 16.1411L49.466 18.7236L57.5831 18.2792L57.4154 15.6967Z" fill="#37CD73" stroke="#37CD73" stroke-width="1.5"/>
<path d="M22.7003 38.4591L14.5782 38.8196L14.7143 41.4036L22.8364 41.0431L22.7003 38.4591Z" fill="#37CD73" stroke="#37CD73" stroke-width="1.5"/>
<path d="M22.6231 33.2489L14.5052 33.6829L14.6691 36.2656L22.7869 35.8316L22.6231 33.2489Z" fill="#37CD73" stroke="#37CD73" stroke-width="1.5"/>
<path d="M44.591 38.789L36.4718 38.3781L36.3167 40.9612L44.4359 41.3721L44.591 38.789Z" fill="#37CD73" stroke="#37CD73" stroke-width="1.5"/>
<path d="M45.0812 33.5586L36.9619 33.1477L36.8068 35.7308L44.9261 36.1418L45.0812 33.5586Z" fill="#37CD73" stroke="#37CD73" stroke-width="1.5"/>
<path d="M32.9026 39.0028L24.835 38.0682L24.4822 40.635L32.5498 41.5695L32.9026 39.0028Z" fill="#37CD73" stroke="#37CD73" stroke-width="1.5"/>
<path d="M33.7601 33.8286L25.6925 32.894L25.3398 35.4608L33.4074 36.3953L33.7601 33.8286Z" fill="#37CD73" stroke="#37CD73" stroke-width="1.5"/>
<path d="M67.3817 33.4741H59.2501V36.0612H67.3817V33.4741Z" fill="#37CD73" stroke="#37CD73" stroke-width="1.5"/>
<path d="M67.197 38.6709H59.0654V41.258H67.197V38.6709Z" fill="#37CD73" stroke="#37CD73" stroke-width="1.5"/>
<path d="M8.87767 44.584L8.82141 34.2943L6.00357 34.3073L6.05983 44.597L8.87767 44.584Z" fill="#37CD73" stroke="#37CD73" stroke-width="1.5"/>
<path d="M19.0679 17.5658L18.438 7.29224L15.6246 7.43764L16.2545 17.7112L19.0679 17.5658Z" fill="#37CD73" stroke="#37CD73" stroke-width="1.5"/>
<path d="M32.6823 17.9379L34.0919 7.72986L31.2964 7.40447L29.8868 17.6126L32.6823 17.9379Z" fill="#37CD73" stroke="#37CD73" stroke-width="1.5"/>
<path d="M42.8816 17.9904L43.4761 7.71509L40.6622 7.57787L40.0677 17.8532L42.8816 17.9904Z" fill="#37CD73" stroke="#37CD73" stroke-width="1.5"/>
<path d="M56.4358 44.3904L55.7616 34.1193L52.9488 34.2749L53.6231 44.5461L56.4358 44.3904Z" fill="#37CD73" stroke="#37CD73" stroke-width="1.5"/>
<path d="M76.8501 44.4323L76.0754 34.1671L73.2643 34.3459L74.039 44.6111L76.8501 44.4323Z" fill="#37CD73" stroke="#37CD73" stroke-width="1.5"/>
<path d="M64.6814 17.8096L64.6251 7.5199L61.8073 7.53288L61.8635 17.8226L64.6814 17.8096Z" fill="#37CD73" stroke="#37CD73" stroke-width="1.5"/>
</svg>
