<svg width="19" height="19" viewBox="0 0 19 19" fill="none" xmlns="http://www.w3.org/2000/svg">
<path d="M18.1372 14.0791L16.1585 12.0602C15.7329 11.6572 15.196 11.3901 14.6169 11.2934C14.0377 11.1967 13.4428 11.2747 12.9085 11.5174L12.0482 10.6603C13.062 9.31085 13.525 7.62886 13.344 5.95296C13.163 4.27706 12.3514 2.73169 11.0727 1.62795C9.79395 0.524207 8.143 -0.0559534 6.45216 0.00425833C4.76133 0.0644701 3.15617 0.760582 1.95981 1.95246C0.763442 3.14435 0.0647125 4.7435 0.00427434 6.42799C-0.0561638 8.11249 0.526178 9.75726 1.63407 11.0312C2.74196 12.3051 4.29314 13.1137 5.97534 13.294C7.65754 13.4743 9.34586 13.0131 10.7004 12.0031L11.5512 12.8506C11.2788 13.3836 11.1812 13.9882 11.2721 14.5794C11.363 15.1705 11.6378 15.7183 12.0578 16.1456L14.0843 18.1645C14.6219 18.6995 15.3508 19 16.1107 19C16.8707 19 17.5995 18.6995 18.1372 18.1645C18.4103 17.8984 18.6273 17.5807 18.7755 17.2299C18.9237 16.8791 19 16.5024 19 16.1218C19 15.7412 18.9237 15.3645 18.7755 15.0137C18.6273 14.6629 18.4103 14.3452 18.1372 14.0791ZM10.0313 10.0413C9.36242 10.7061 8.51079 11.1584 7.584 11.3411C6.65722 11.5238 5.69685 11.4289 4.82423 11.0681C3.95161 10.7074 3.20589 10.0971 2.68125 9.3143C2.15662 8.53154 1.87661 7.61142 1.87661 6.6702C1.87661 5.72897 2.15662 4.80886 2.68125 4.0261C3.20589 3.24333 3.95161 2.63303 4.82423 2.27229C5.69685 1.91155 6.65722 1.81655 7.584 1.9993C8.51079 2.18205 9.36242 2.63434 10.0313 3.29905C10.4764 3.74135 10.8295 4.26679 11.0705 4.84527C11.3114 5.42374 11.4354 6.0439 11.4354 6.6702C11.4354 7.2965 11.3114 7.91665 11.0705 8.49513C10.8295 9.07361 10.4764 9.59905 10.0313 10.0413ZM16.7894 16.7741C16.7005 16.8634 16.5948 16.9342 16.4783 16.9826C16.3619 17.0309 16.2369 17.0558 16.1107 17.0558C15.9845 17.0558 15.8596 17.0309 15.7431 16.9826C15.6266 16.9342 15.5209 16.8634 15.432 16.7741L13.4056 14.7552C13.316 14.6667 13.2449 14.5614 13.1963 14.4453C13.1478 14.3293 13.1228 14.2048 13.1228 14.0791C13.1228 13.9534 13.1478 13.8289 13.1963 13.7129C13.2449 13.5968 13.316 13.4915 13.4056 13.403C13.4944 13.3137 13.6002 13.2429 13.7166 13.1945C13.8331 13.1462 13.9581 13.1213 14.0843 13.1213C14.2104 13.1213 14.3354 13.1462 14.4519 13.1945C14.5683 13.2429 14.6741 13.3137 14.7629 13.403L16.7894 15.4219C16.879 15.5104 16.9501 15.6157 16.9986 15.7318C17.0472 15.8478 17.0722 15.9723 17.0722 16.098C17.0722 16.2237 17.0472 16.3482 16.9986 16.4642C16.9501 16.5803 16.879 16.6856 16.7894 16.7741Z" fill="#D3DFDA"/>
</svg>
