<svg width="90" height="85" viewBox="0 0 90 85" fill="none" xmlns="http://www.w3.org/2000/svg">
<path d="M52.38 28.9223L51.075 36.671C50.8584 37.9719 51.0184 39.3072 51.5364 40.5208C52.0544 41.7344 52.909 42.7761 54 43.524C55.0208 44.2643 56.2344 44.6961 57.4954 44.7676C58.7564 44.8391 60.0113 44.5472 61.11 43.9271L67.5 40.2991L73.98 43.8375C75.0599 44.4521 76.2929 44.7489 77.5357 44.6934C78.7784 44.6379 79.9797 44.2324 81 43.524C82.0593 42.772 82.8861 41.7401 83.3871 40.5449C83.8881 39.3498 84.0432 38.0389 83.835 36.7606L82.53 29.0118L87.93 23.5474C88.8211 22.6459 89.4461 21.5179 89.7366 20.2867C90.0271 19.0554 89.9719 17.7685 89.577 16.5664C89.1822 15.3643 88.4629 14.2934 87.4979 13.4707C86.5328 12.6481 85.3591 12.1053 84.105 11.9019L76.815 10.8269L73.53 3.88436C72.9876 2.72393 72.1234 1.74186 71.0392 1.05372C69.955 0.36558 68.6959 0 67.41 0C66.1241 0 64.865 0.36558 63.7808 1.05372C62.6966 1.74186 61.8324 2.72393 61.29 3.88436L58.005 10.8269L50.715 11.9019C49.4609 12.1053 48.2872 12.6481 47.3221 13.4707C46.3571 14.2934 45.6378 15.3643 45.243 16.5664C44.8481 17.7685 44.7929 19.0554 45.0834 20.2867C45.3739 21.5179 45.9989 22.6459 46.89 23.5474L52.38 28.9223ZM60.615 19.3819C61.7185 19.2154 62.7637 18.781 63.6584 18.117C64.5532 17.453 65.2698 16.5798 65.745 15.5747L67.5 11.8571L69.255 15.5747C69.7372 16.5791 70.455 17.4533 71.3478 18.1237C72.2406 18.7941 73.2823 19.241 74.385 19.4267L78.885 20.0537L75.6 23.3682C74.8385 24.154 74.2713 25.1054 73.9432 26.1472C73.6152 27.1889 73.5353 28.2924 73.71 29.3702L74.43 33.8492L70.875 31.9232C69.8842 31.3741 68.769 31.0859 67.635 31.0859C66.501 31.0859 65.3858 31.3741 64.395 31.9232L60.84 33.8492L61.56 29.3702C61.7381 28.2992 61.6598 27.2016 61.3314 26.1664C61.003 25.1313 60.4338 24.1879 59.67 23.413L56.385 20.0537L60.615 19.3819ZM85.5 53.6466C84.3065 53.6466 83.1619 54.1185 82.318 54.9585C81.4741 55.7985 81 56.9378 81 58.1257V71.5628C81 72.7508 80.5259 73.89 79.682 74.73C78.8381 75.57 77.6935 76.0419 76.5 76.0419H13.5C12.3065 76.0419 11.1619 75.57 10.318 74.73C9.47411 73.89 9 72.7508 9 71.5628V28.6087L35.46 54.9456C36.6927 56.195 38.1634 57.1871 39.7861 57.8639C41.4087 58.5407 43.1507 58.8885 44.91 58.8871H46.125C47.3119 58.7846 48.4094 58.2178 49.1771 57.3109C49.9447 56.4041 50.3198 55.2314 50.22 54.0498C50.1692 53.4607 50.0016 52.8874 49.7271 52.3631C49.4526 51.8388 49.0765 51.3738 48.6205 50.9949C48.1645 50.6159 47.6376 50.3306 47.0703 50.1554C46.503 49.9801 45.9064 49.9184 45.315 49.9738C44.6798 50.0386 44.0381 49.9595 43.438 49.7423C42.8379 49.5251 42.295 49.1755 41.85 48.7197L15.345 22.2933H31.5C32.6935 22.2933 33.8381 21.8214 34.682 20.9814C35.5259 20.1414 36 19.0021 36 17.8142C36 16.6263 35.5259 15.487 34.682 14.647C33.8381 13.8071 32.6935 13.3352 31.5 13.3352H13.5C9.91958 13.3352 6.4858 14.7509 3.95406 17.2708C1.42232 19.7908 0 23.2086 0 26.7723V71.5628C0 75.1266 1.42232 78.5444 3.95406 81.0644C6.4858 83.5843 9.91958 85 13.5 85H76.5C80.0804 85 83.5142 83.5843 86.0459 81.0644C88.5777 78.5444 90 75.1266 90 71.5628V58.1257C90 56.9378 89.5259 55.7985 88.682 54.9585C87.8381 54.1185 86.6935 53.6466 85.5 53.6466Z" fill="#FF66C2"/>
</svg>
