<svg width="19" height="14" viewBox="0 0 19 14" fill="none" xmlns="http://www.w3.org/2000/svg">
<path d="M0.95 2.33333H18.05C18.302 2.33333 18.5436 2.21042 18.7218 1.99162C18.8999 1.77283 19 1.47609 19 1.16667C19 0.857247 18.8999 0.560501 18.7218 0.341709C18.5436 0.122917 18.302 0 18.05 0H0.95C0.698044 0 0.456408 0.122917 0.278249 0.341709C0.100089 0.560501 0 0.857247 0 1.16667C0 1.47609 0.100089 1.77283 0.278249 1.99162C0.456408 2.21042 0.698044 2.33333 0.95 2.33333ZM18.05 11.6667H0.95C0.698044 11.6667 0.456408 11.7896 0.278249 12.0084C0.100089 12.2272 0 12.5239 0 12.8333C0 13.1428 0.100089 13.4395 0.278249 13.6583C0.456408 13.8771 0.698044 14 0.95 14H18.05C18.302 14 18.5436 13.8771 18.7218 13.6583C18.8999 13.4395 19 13.1428 19 12.8333C19 12.5239 18.8999 12.2272 18.7218 12.0084C18.5436 11.7896 18.302 11.6667 18.05 11.6667ZM18.05 5.83333H0.95C0.698044 5.83333 0.456408 5.95625 0.278249 6.17504C0.100089 6.39383 0 6.69058 0 7C0 7.30942 0.100089 7.60616 0.278249 7.82496C0.456408 8.04375 0.698044 8.16667 0.95 8.16667H18.05C18.302 8.16667 18.5436 8.04375 18.7218 7.82496C18.8999 7.60616 19 7.30942 19 7C19 6.69058 18.8999 6.39383 18.7218 6.17504C18.5436 5.95625 18.302 5.83333 18.05 5.83333Z" fill="current"/>
</svg>
