<svg width="90" height="91" viewBox="0 0 90 91" fill="none" xmlns="http://www.w3.org/2000/svg">
<path d="M22.5 57H36C37.1935 57 38.3381 56.4943 39.182 55.5941C40.0259 54.6939 40.5 53.473 40.5 52.2C40.5 50.927 40.0259 49.7061 39.182 48.8059C38.3381 47.9057 37.1935 47.4 36 47.4H22.5C21.3065 47.4 20.1619 47.9057 19.318 48.8059C18.4741 49.7061 18 50.927 18 52.2C18 53.473 18.4741 54.6939 19.318 55.5941C20.1619 56.4943 21.3065 57 22.5 57ZM76.5 9H13.5C9.91958 9 6.4858 10.5171 3.95406 13.2177C1.42232 15.9182 0 19.5809 0 23.4V66.6C0 70.4191 1.42232 74.0818 3.95406 76.7823C6.4858 79.4829 9.91958 81 13.5 81H76.5C80.0804 81 83.5142 79.4829 86.0459 76.7823C88.5777 74.0818 90 70.4191 90 66.6V23.4C90 19.5809 88.5777 15.9182 86.0459 13.2177C83.5142 10.5171 80.0804 9 76.5 9ZM81 66.6C81 67.873 80.5259 69.0939 79.682 69.9941C78.8381 70.8943 77.6935 71.4 76.5 71.4H13.5C12.3065 71.4 11.1619 70.8943 10.318 69.9941C9.47411 69.0939 9 67.873 9 66.6V37.8H81V66.6ZM81 28.2H9V23.4C9 22.127 9.47411 20.9061 10.318 20.0059C11.1619 19.1057 12.3065 18.6 13.5 18.6H76.5C77.6935 18.6 78.8381 19.1057 79.682 20.0059C80.5259 20.9061 81 22.127 81 23.4V28.2Z" fill="#8155FF"/>
<path d="M52.9255 45.4951L88.3373 9.74287C89.3958 8.67256 89.9904 7.2209 89.9904 5.70724C89.9904 4.19359 89.3958 2.74193 88.3373 1.67161C87.2789 0.601298 85.8433 0 84.3465 0C82.8496 0 81.4141 0.601298 80.3556 1.67161L45 37.4807L9.64438 1.67161C8.58593 0.601298 7.15038 1.34389e-06 5.65352 1.35517e-06C4.15666 1.36645e-06 2.7211 0.601298 1.66266 1.67161C0.604219 2.74193 0.00959402 4.19359 0.00959401 5.70724C0.009594 7.2209 0.604219 8.67256 1.66266 9.74287L37.0745 45.4951L1.66266 81.2474C1.13582 81.7758 0.717656 82.4045 0.432289 83.0971C0.146922 83.7898 0 84.5327 0 85.2831C0 86.0334 0.146922 86.7763 0.432289 87.469C0.717656 88.1616 1.13582 88.7903 1.66266 89.3187C2.1852 89.8514 2.80688 90.2743 3.49184 90.5629C4.1768 90.8514 4.91149 91 5.65352 91C6.39555 91 7.13023 90.8514 7.8152 90.5629C8.50016 90.2743 9.12184 89.8514 9.64438 89.3187L45 53.5096L80.3556 89.3187C80.8782 89.8514 81.4998 90.2743 82.1848 90.5629C82.8698 90.8514 83.6045 91 84.3465 91C85.0885 91 85.8232 90.8514 86.5082 90.5629C87.1931 90.2743 87.8148 89.8514 88.3373 89.3187C88.8642 88.7903 89.2823 88.1616 89.5677 87.469C89.8531 86.7763 90 86.0334 90 85.2831C90 84.5327 89.8531 83.7898 89.5677 83.0971C89.2823 82.4045 88.8642 81.7758 88.3373 81.2474L52.9255 45.4951Z" fill="#FF3C3C"/>
</svg>
