<svg width="27" height="28" viewBox="0 0 27 28" fill="none" xmlns="http://www.w3.org/2000/svg">
<path d="M26.47 13.7233L22.0837 10.1835L26.4835 6.60174C26.6576 6.46013 26.7954 6.27632 26.8849 6.06649C26.9743 5.85667 27.0126 5.62726 26.9964 5.39848C26.9749 5.17057 26.9028 4.95091 26.7857 4.75672C26.6686 4.56252 26.5098 4.39908 26.3216 4.27918L19.3844 0.179728C19.1408 0.0376421 18.8606 -0.0225182 18.5826 0.00755682C18.3046 0.0376319 18.0424 0.156458 17.8323 0.347624L13.5 4.26519L9.16767 0.347624C8.95758 0.156458 8.69543 0.0376319 8.4174 0.00755682C8.13938 -0.0225182 7.85921 0.0376421 7.61558 0.179728L0.678448 4.27918C0.490243 4.39908 0.331378 4.56252 0.214301 4.75672C0.0972238 4.95091 0.0251164 5.17057 0.00362902 5.39848C-0.0125867 5.62726 0.0257085 5.85667 0.115142 6.06649C0.204576 6.27632 0.342405 6.46013 0.516491 6.60174L4.91631 10.1835L0.529988 13.6673C0.353435 13.8074 0.213003 13.9906 0.121176 14.2005C0.0293492 14.4104 -0.0110295 14.6406 0.00362902 14.8706C0.0185838 15.1003 0.0879976 15.3227 0.205713 15.5179C0.323429 15.7132 0.485808 15.8753 0.678448 15.9899L5.28071 18.7882V22.244C5.28167 22.4831 5.34172 22.718 5.45513 22.9262C5.56854 23.1344 5.73153 23.3089 5.92854 23.4333L12.7982 27.8126C13.0034 27.9354 13.2361 28 13.473 28C13.7099 28 13.9427 27.9354 14.1478 27.8126L21.0175 23.4333C21.2145 23.3089 21.3775 23.1344 21.4909 22.9262C21.6043 22.718 21.6643 22.4831 21.6653 22.244V18.7742L26.2676 16.0459C26.4602 15.9313 26.6226 15.7691 26.7403 15.5739C26.858 15.3786 26.9274 15.1563 26.9424 14.9266C26.9634 14.7014 26.9314 14.4742 26.8491 14.2647C26.7668 14.0551 26.6367 13.8693 26.47 13.7233ZM18.8985 3.10391L23.2579 5.67831L19.8163 8.47657L15.7674 5.90217L18.8985 3.10391ZM17.4274 10.2675L13.5 13.0657L9.57256 10.2675L13.5 7.76301L17.4274 10.2675ZM3.76912 5.67831L8.10145 3.10391L11.2191 5.90217L7.1702 8.47657L3.76912 5.67831ZM3.76912 14.6188L7.14321 11.9324L11.1921 14.8426L8.19593 17.2631L3.76912 14.6188ZM19.0065 21.4185L13.5 24.9443L7.97998 21.4185V20.2992C8.17716 20.3494 8.38272 20.3528 8.58134 20.3092C8.77997 20.2656 8.96655 20.1761 9.12718 20.0474L13.5 16.5496L17.8728 20.0474C18.1084 20.2369 18.3979 20.3402 18.6961 20.3412C18.8037 20.3547 18.9124 20.3547 19.02 20.3412L19.0065 21.4185ZM18.8041 17.2211L15.7944 14.8426L19.8433 11.9324L23.2309 14.6467L18.8041 17.2211Z" fill="current"/>
</svg>
