<svg width="41" height="42" viewBox="0 0 41 42" fill="none" xmlns="http://www.w3.org/2000/svg">
<path d="M20.4359 1.3125C12.1078 1.3125 4.99688 6.825 2.37031 14.4375H38.6297C35.9391 6.825 28.8281 1.3125 20.4359 1.3125Z" fill="#F9F9F9"/>
<path d="M20.4359 40.6875C28.8281 40.6875 35.9391 35.175 38.5656 27.5625H2.37031C4.99688 35.2406 12.1078 40.6875 20.4359 40.6875Z" fill="#ED4C5C"/>
<path d="M2.37031 14.4375C1.66563 16.4719 1.28125 18.7031 1.28125 21C1.28125 23.2969 1.66563 25.5281 2.37031 27.5625H38.6297C39.3344 25.5281 39.7188 23.2969 39.7188 21C39.7188 18.7031 39.3344 16.4719 38.6297 14.4375H2.37031Z" fill="#428BC1"/>
</svg>
