<svg width="90" height="91" viewBox="0 0 90 91" fill="none" xmlns="http://www.w3.org/2000/svg">
<path d="M32.5 76.6316C31.0166 76.6316 29.5666 77.0529 28.3332 77.8423C27.0999 78.6318 26.1386 79.7538 25.5709 81.0665C25.0032 82.3793 24.8547 83.8238 25.1441 85.2174C25.4335 86.611 26.1478 87.8911 27.1967 88.8958C28.2456 89.9005 29.582 90.5847 31.0368 90.862C32.4917 91.1392 33.9997 90.9969 35.3701 90.4531C36.7406 89.9094 37.9119 88.9886 38.736 87.8071C39.5601 86.6257 40 85.2367 40 83.8158C40 81.9104 39.2098 80.0831 37.8033 78.7358C36.3968 77.3885 34.4891 76.6316 32.5 76.6316ZM85 62.2632H25C23.6739 62.2632 22.4021 61.7586 21.4645 60.8604C20.5268 59.9622 20 58.7439 20 57.4737C20 56.2034 20.5268 54.9852 21.4645 54.087C22.4021 53.1888 23.6739 52.6842 25 52.6842H67.455C70.7125 52.6745 73.8789 51.6536 76.4796 49.7746C79.0803 47.8957 80.9751 45.2598 81.88 42.2623L89.805 15.6807C90.0169 14.9684 90.0534 14.2186 89.9116 13.4905C89.7699 12.7623 89.4537 12.0755 88.9881 11.4842C88.5224 10.8928 87.9199 10.413 87.2279 10.0824C86.5359 9.75183 85.7733 9.57949 85 9.57895H23.7C22.664 6.78676 20.7542 4.36863 18.2308 2.65438C15.7075 0.940121 12.6935 0.0131886 9.6 0H5C3.67392 0 2.40215 0.504604 1.46447 1.4028C0.526784 2.301 0 3.51923 0 4.78947C0 6.05972 0.526784 7.27794 1.46447 8.17614C2.40215 9.07434 3.67392 9.57895 5 9.57895H9.605C10.6908 9.58227 11.7462 9.92237 12.6133 10.5483C13.4804 11.1743 14.1125 12.0524 14.415 13.0513L15.19 15.6616V15.6855L23.395 43.1867C19.5758 43.5778 16.0588 45.3574 13.5688 48.1587C11.0787 50.96 9.80534 54.5696 10.0111 58.2435C10.2169 61.9174 11.8861 65.3757 14.6748 67.9057C17.4635 70.4358 21.1591 71.8447 25 71.8421H85C86.3261 71.8421 87.5979 71.3375 88.5355 70.4393C89.4732 69.5411 90 68.3229 90 67.0526C90 65.7824 89.4732 64.5642 88.5355 63.666C87.5979 62.7678 86.3261 62.2632 85 62.2632ZM78.37 19.1579L72.27 39.6281C71.9682 40.6287 71.3357 41.5084 70.4675 42.1354C69.5993 42.7624 68.5423 43.1027 67.455 43.1053H33.77L32.495 38.833L26.63 19.1579H78.37ZM72.5 76.6316C71.0166 76.6316 69.5666 77.0529 68.3332 77.8423C67.0999 78.6318 66.1386 79.7538 65.5709 81.0665C65.0032 82.3793 64.8547 83.8238 65.1441 85.2174C65.4335 86.611 66.1478 87.8911 67.1967 88.8958C68.2456 89.9005 69.582 90.5847 71.0368 90.862C72.4917 91.1392 73.9997 90.9969 75.3701 90.4531C76.7406 89.9094 77.9119 88.9886 78.736 87.8071C79.5601 86.6257 80 85.2367 80 83.8158C80 81.9104 79.2098 80.0831 77.8033 78.7358C76.3968 77.3885 74.4891 76.6316 72.5 76.6316Z" fill="#FFB341"/>
</svg>
