<svg width="21" height="22" viewBox="0 0 21 22" fill="none" xmlns="http://www.w3.org/2000/svg">
<path d="M20.2991 0.518487C20.0273 0.259173 19.6993 0.0892373 19.35 0.0267699C19.0006 -0.0356976 18.6431 0.0116412 18.3154 0.163747L1.20797 8.08519C0.842216 8.25785 0.53088 8.55398 0.315266 8.93429C0.0996526 9.3146 -0.0100463 9.76111 0.000723407 10.2146C0.0114932 10.6681 0.142223 11.1071 0.375567 11.4733C0.608912 11.8396 0.933842 12.1159 1.30725 12.2654L4.76768 13.6461L6.69598 20.9621C6.7224 21.0597 6.76064 21.1525 6.80957 21.238C6.81721 21.2511 6.82771 21.2599 6.83535 21.2741C6.8916 21.3639 6.95953 21.4433 7.03677 21.5095C7.05833 21.5289 7.08062 21.5471 7.10359 21.5642C7.19401 21.6331 7.29413 21.6834 7.39952 21.7131L7.41193 21.7142L7.41765 21.7175C7.48145 21.7322 7.54637 21.7395 7.61144 21.7394L7.62862 21.7361C7.72639 21.7343 7.82331 21.7151 7.91596 21.6792C7.93791 21.6704 7.95605 21.6573 7.97705 21.6464C8.04635 21.6138 8.11204 21.5719 8.17274 21.5215C8.22109 21.4744 8.26946 21.4274 8.31784 21.3803L10.8972 18.1143L14.7442 21.5325C15.0828 21.835 15.4997 21.9995 15.9289 22C16.3787 21.9994 16.8147 21.8214 17.1637 21.4959C17.5127 21.1703 17.7535 20.7171 17.8457 20.2121L20.9606 2.6754C21.031 2.28087 21.0067 1.87179 20.8902 1.49189C20.7737 1.11199 20.5693 0.775539 20.2991 0.518487ZM7.98946 13.9942C7.85726 14.1456 7.76693 14.3383 7.72981 14.5483L7.43388 16.195L6.68547 13.3559L10.5659 11.0381L7.98946 13.9942ZM15.9146 19.8015L11.3678 15.7614C11.1776 15.593 10.939 15.513 10.6996 15.5374C10.4602 15.5617 10.2377 15.6886 10.0762 15.8928L9.24953 16.9384L9.54164 15.3103L16.3031 7.55527C16.4635 7.37014 16.561 7.12537 16.578 6.86508C16.5949 6.60479 16.5303 6.34611 16.3956 6.13568C16.261 5.92525 16.0652 5.7769 15.8437 5.7174C15.6221 5.65789 15.3893 5.69113 15.1872 5.81113L5.48363 11.6052L1.92774 10.1129L19.0905 2.23964L15.9146 19.8015Z" fill="current"/>
</svg>
