<svg width="19" height="24" viewBox="0 0 19 24" fill="none" xmlns="http://www.w3.org/2000/svg">
<path d="M9.5 14.4C9.18506 14.4 8.88301 14.5264 8.66031 14.7515C8.43761 14.9765 8.3125 15.2817 8.3125 15.6V18C8.3125 18.3183 8.43761 18.6235 8.66031 18.8485C8.88301 19.0736 9.18506 19.2 9.5 19.2C9.81494 19.2 10.117 19.0736 10.3397 18.8485C10.5624 18.6235 10.6875 18.3183 10.6875 18V15.6C10.6875 15.2817 10.5624 14.9765 10.3397 14.7515C10.117 14.5264 9.81494 14.4 9.5 14.4ZM9.95125 10.896C9.73629 10.7953 9.49642 10.7618 9.2625 10.8L9.04875 10.872L8.835 10.98L8.65687 11.124C8.54393 11.239 8.45519 11.3758 8.39601 11.5264C8.33682 11.677 8.30842 11.8381 8.3125 12C8.3116 12.1579 8.34155 12.3145 8.40065 12.4607C8.45974 12.6069 8.54682 12.7399 8.65687 12.852C8.76981 12.9612 8.90298 13.0469 9.04875 13.104C9.18968 13.1712 9.34423 13.2041 9.5 13.2C9.65628 13.2009 9.81121 13.1706 9.95589 13.1109C10.1006 13.0512 10.2322 12.9632 10.3431 12.852C10.4532 12.7399 10.5403 12.6069 10.5994 12.4607C10.6584 12.3145 10.6884 12.1579 10.6875 12C10.6884 11.8421 10.6584 11.6855 10.5994 11.5393C10.5403 11.3931 10.4532 11.2601 10.3431 11.148C10.2277 11.042 10.0952 10.9568 9.95125 10.896ZM19 8.328C18.9876 8.21776 18.9637 8.10916 18.9288 8.004V7.896C18.8717 7.77262 18.7955 7.6592 18.7031 7.56L11.5781 0.36C11.48 0.266659 11.3677 0.189697 11.2456 0.132H11.1269C11.0114 0.0696037 10.8873 0.0251064 10.7588 0H3.5625C2.61767 0 1.71153 0.379285 1.04343 1.05442C0.375334 1.72955 0 2.64522 0 3.6V20.4C0 21.3548 0.375334 22.2705 1.04343 22.9456C1.71153 23.6207 2.61767 24 3.5625 24H15.4375C16.3823 24 17.2885 23.6207 17.9566 22.9456C18.6247 22.2705 19 21.3548 19 20.4V8.328ZM11.875 4.092L14.9506 7.2H13.0625C12.7476 7.2 12.4455 7.07357 12.2228 6.84853C12.0001 6.62348 11.875 6.31826 11.875 6V4.092ZM16.625 20.4C16.625 20.7183 16.4999 21.0235 16.2772 21.2485C16.0545 21.4736 15.7524 21.6 15.4375 21.6H3.5625C3.24756 21.6 2.94551 21.4736 2.72281 21.2485C2.50011 21.0235 2.375 20.7183 2.375 20.4V3.6C2.375 3.28174 2.50011 2.97652 2.72281 2.75147C2.94551 2.52643 3.24756 2.4 3.5625 2.4H9.5V6C9.5 6.95478 9.87533 7.87045 10.5434 8.54559C11.2115 9.22072 12.1177 9.6 13.0625 9.6H16.625V20.4Z" fill="current"/>
</svg>
