<svg width="36" height="36" viewBox="0 0 36 36" fill="none" xmlns="http://www.w3.org/2000/svg">
<path d="M36 9.43132C36.0013 9.19445 35.9559 8.95964 35.8664 8.74035C35.7768 8.52105 35.6448 8.3216 35.478 8.15342L27.846 0.521991C27.6778 0.355177 27.4783 0.223201 27.259 0.133632C27.0397 0.0440623 26.8049 -0.00133942 26.568 3.00835e-05C26.3311 -0.00133942 26.0963 0.0440623 25.877 0.133632C25.6576 0.223201 25.4582 0.355177 25.29 0.521991L20.196 5.61561L0.522029 25.2881C0.355203 25.4563 0.223218 25.6558 0.133642 25.8751C0.0440655 26.0944 -0.00133952 26.3292 3.00857e-05 26.566V34.1975C3.00857e-05 34.6748 0.189672 35.1326 0.527237 35.4702C0.864802 35.8077 1.32264 35.9973 1.80003 35.9973H9.43201C9.68388 36.011 9.93582 35.9717 10.1715 35.8817C10.4072 35.7918 10.6213 35.6534 10.8 35.4754L30.366 15.8029L35.478 10.7992C35.6423 10.6248 35.7761 10.424 35.874 10.2053C35.8913 10.0618 35.8913 9.91677 35.874 9.7733C35.8824 9.68952 35.8824 9.6051 35.874 9.52132L36 9.43132ZM8.69401 32.3976H3.60002V27.304L21.474 9.43132L26.568 14.5249L8.69401 32.3976ZM29.106 11.9871L24.012 6.89352L26.568 4.3557L31.644 9.43132L29.106 11.9871Z" fill="current"/>
</svg>
